<svg xmlns="http://www.w3.org/2000/svg" viewBox="0 0 384 384" width="384" height="384">
  <rect width="384" height="384" rx="64" fill="#0d3329"/>
  <circle cx="192" cy="192" r="152" fill="none"/>
  <path d="M192 64c68.484 0 124 55.516 124 124 0 68.484-55.516 124-124 124-18.036 0-35.11-3.614-50.064-10.32-41.304 10.32-77.454-20.652-77.454-61.954 0-41.308 36.124-72.28 77.454-61.954 14.954-6.706 32.028-10.32 50.064-10.32z" fill="#d4af37"/>
  <circle cx="268" cy="116" r="11" fill="#d4af37"/>
  <circle cx="304" cy="168" r="9" fill="#f4d03f"/>
  <circle cx="292" cy="100" r="7" fill="#f4d03f"/>
  <circle cx="316" cy="136" r="6" fill="#d4af37"/>
  <circle cx="300" cy="152" r="5" fill="#f4d03f"/>
  <circle cx="320" cy="124" r="4" fill="#d4af37"/>
</svg>