<svg xmlns="http://www.w3.org/2000/svg" viewBox="0 0 192 192" width="192" height="192">
  <rect width="192" height="192" rx="32" fill="#0d3329"/>
  <circle cx="96" cy="96" r="76" fill="none"/>
  <path d="M96 32c34.242 0 62 27.758 62 62 0 34.242-27.758 62-62 62-9.018 0-17.555-1.807-25.032-5.16-20.652 5.16-38.727-10.326-38.727-30.977 0-20.654 18.062-36.14 38.727-30.977 7.477-3.353 16.014-5.16 25.032-5.16z" fill="#d4af37"/>
  <circle cx="134" cy="58" r="5.5" fill="#d4af37"/>
  <circle cx="152" cy="84" r="4.5" fill="#f4d03f"/>
  <circle cx="146" cy="50" r="3.5" fill="#f4d03f"/>
  <circle cx="158" cy="68" r="3" fill="#d4af37"/>
  <circle cx="150" cy="76" r="2.5" fill="#f4d03f"/>
</svg>