<svg xmlns="http://www.w3.org/2000/svg" viewBox="0 0 512 512" width="512" height="512">
  <rect width="512" height="512" rx="86" fill="#0d3329"/>
  <circle cx="256" cy="256" r="203" fill="none"/>
  <path d="M256 86c91.312 0 165.333 74.021 165.333 165.333 0 91.312-74.021 165.333-165.333 165.333-24.084 0-46.813-4.818-66.755-13.76-55.072 13.76-103.272-27.536-103.272-82.605 0-55.074 48.166-96.374 103.272-82.605 19.942-8.942 42.671-13.76 66.755-13.76z" fill="#d4af37"/>
  <circle cx="358" cy="155" r="15" fill="#d4af37"/>
  <circle cx="406" cy="224" r="12" fill="#f4d03f"/>
  <circle cx="390" cy="134" r="10" fill="#f4d03f"/>
  <circle cx="422" cy="182" r="8" fill="#d4af37"/>
  <circle cx="400" cy="204" r="6" fill="#f4d03f"/>
  <circle cx="426" cy="166" r="5" fill="#d4af37"/>
  <circle cx="414" cy="196" r="4" fill="#f4d03f"/>
</svg>